<?xml version="1.0" encoding="UTF-8" standalone="no"?>
<!-- Created with Inkscape (http://www.inkscape.org/) -->

<svg
   width="109.55338mm"
   height="109.55073mm"
   viewBox="0 0 109.55338 109.55073"
   version="1.1"
   id="svg1"
   xmlns="http://www.w3.org/2000/svg"
   xmlns:svg="http://www.w3.org/2000/svg">
  <defs
     id="defs1">
    <linearGradient
       id="g1"
       x2="1"
       gradientUnits="userSpaceOnUse"
       gradientTransform="matrix(0,402.055,-402.056,0,916.217,167.706)">
      <stop
         offset="0"
         stop-color="#c3c2c2"
         id="stop1" />
      <stop
         offset="1"
         stop-color="#bab9b9"
         id="stop2" />
    </linearGradient>
    <linearGradient
       id="g2"
       x2="1"
       gradientUnits="userSpaceOnUse"
       gradientTransform="matrix(0,390.053,-390.054,0,910.216,173.707)">
      <stop
         offset="0"
         stop-color="#c6c5c6"
         id="stop3" />
      <stop
         offset="1"
         stop-color="#b4b3b3"
         id="stop4" />
    </linearGradient>
    <linearGradient
       id="g3"
       x2="1"
       gradientUnits="userSpaceOnUse"
       gradientTransform="matrix(0,378.052,-378.053,0,904.215,179.707)">
      <stop
         offset="0"
         stop-color="#c9c9c9"
         id="stop5" />
      <stop
         offset="1"
         stop-color="#aeaeae"
         id="stop6" />
    </linearGradient>
    <linearGradient
       id="g4"
       x2="1"
       gradientUnits="userSpaceOnUse"
       gradientTransform="matrix(0,366.05,-366.051,0,898.214,185.708)">
      <stop
         offset="0"
         stop-color="#cbcccc"
         id="stop7" />
      <stop
         offset="1"
         stop-color="#a8a8a8"
         id="stop8" />
    </linearGradient>
    <linearGradient
       id="g5"
       x2="1"
       gradientUnits="userSpaceOnUse"
       gradientTransform="matrix(0,354.049,-354.049,0,892.213,191.709)">
      <stop
         offset="0"
         stop-color="#cecfd0"
         id="stop9" />
      <stop
         offset="1"
         stop-color="#a2a2a2"
         id="stop10" />
    </linearGradient>
    <linearGradient
       id="g6"
       x2="1"
       gradientUnits="userSpaceOnUse"
       gradientTransform="matrix(0,342.047,-342.047,0,886.212,197.71)">
      <stop
         offset="0"
         stop-color="#d1d2d3"
         id="stop11" />
      <stop
         offset="1"
         stop-color="#9c9c9c"
         id="stop12" />
    </linearGradient>
    <linearGradient
       id="g7"
       x2="1"
       gradientUnits="userSpaceOnUse"
       gradientTransform="matrix(0,273.037,-273.036,0,851.708,232.215)">
      <stop
         offset="0"
         stop-color="#e6e6e6"
         id="stop13" />
      <stop
         offset="1"
         stop-color="#cccccc"
         id="stop14" />
    </linearGradient>
    <linearGradient
       id="g8"
       x2="1"
       gradientUnits="userSpaceOnUse"
       gradientTransform="matrix(0,249.034,-249.034,0,839.706,244.216)">
      <stop
         offset="0"
         stop-color="#f2f2f2"
         id="stop15" />
      <stop
         offset="1"
         stop-color="#a1a1a1"
         id="stop16" />
    </linearGradient>
    <linearGradient
       id="g9"
       x2="1"
       gradientUnits="userSpaceOnUse"
       gradientTransform="matrix(0,45.293,-58.206,0,643.76,401.559)">
      <stop
         offset="0"
         stop-color="#616164"
         id="stop17" />
      <stop
         offset="1"
         stop-color="#3b3738"
         id="stop18" />
    </linearGradient>
    <linearGradient
       id="g10"
       x2="1"
       gradientUnits="userSpaceOnUse"
       gradientTransform="matrix(0,40.988,-61.214,0,636.658,313.288)">
      <stop
         offset="0"
         stop-color="#9c9c9c"
         id="stop19" />
      <stop
         offset="1"
         stop-color="#616164"
         id="stop20" />
    </linearGradient>
    <linearGradient
       id="g11"
       x2="1"
       gradientUnits="userSpaceOnUse"
       gradientTransform="matrix(0,219.029,-213.186,0,821.783,256.218)">
      <stop
         offset="0"
         stop-color="#ffffff"
         id="stop21" />
      <stop
         offset="1"
         stop-color="#9c9c9c"
         id="stop22" />
    </linearGradient>
    <linearGradient
       id="g12"
       x2="1"
       gradientUnits="userSpaceOnUse"
       gradientTransform="matrix(0,-219.029,222.07,0,604.154,481.248)">
      <stop
         offset="0"
         stop-color="#a1a1a1"
         id="stop23" />
      <stop
         offset=".88"
         stop-color="#3b3738"
         id="stop24" />
      <stop
         offset="1"
         stop-color="#d0d0d0"
         id="stop25" />
    </linearGradient>
    <linearGradient
       id="g13"
       x2="1"
       gradientUnits="userSpaceOnUse"
       gradientTransform="matrix(0,210.028,-210.029,0,820.204,263.719)">
      <stop
         offset="0"
         stop-color="#d0d0d0"
         id="stop26" />
      <stop
         offset="1"
         stop-color="#9c9c9c"
         id="stop27" />
    </linearGradient>
    <linearGradient
       id="g14"
       x2="1"
       gradientUnits="userSpaceOnUse"
       gradientTransform="matrix(-26.764,141.252,-68.33,-12.947,771.573,236.504)">
      <stop
         offset="0"
         stop-color="#d2d5de"
         id="stop28" />
      <stop
         offset=".356"
         stop-color="#f1f1f2"
         id="stop29" />
      <stop
         offset="1"
         stop-color="#d2d5de"
         id="stop30" />
    </linearGradient>
  </defs>
  <g
     id="layer1"
     transform="translate(-34.395825,-57.414582)">
    <g
       id="g186"
       transform="matrix(0.26458333,0,0,0.26458333,-100.05484,14.628812)">
      <g
         id="&lt;Group&gt;">
        <path
           id="path163"
           class="s0"
           d="m 922.22,368.73 c 0,114.34 -92.69,207.03 -207.03,207.03 -114.34,0 -207.03,-92.69 -207.03,-207.03 0,-114.34 92.69,-207.02 207.03,-207.02 114.34,0 207.03,92.68 207.03,207.02 z"
           style="fill:#c0bfbf" />
        <path
           id="path164"
           class="s1"
           d="m 916.22,368.73 c 0,111.03 -90.01,201.03 -201.03,201.03 -111.03,0 -201.03,-90 -201.03,-201.03 0,-111.02 90,-201.02 201.03,-201.02 111.02,0 201.03,90 201.03,201.02 z"
           style="fill:url(#g1)" />
        <path
           id="path165"
           class="s2"
           d="m 910.21,368.73 c 0,107.71 -87.31,195.03 -195.02,195.03 -107.71,0 -195.03,-87.32 -195.03,-195.03 0,-107.71 87.32,-195.02 195.03,-195.02 107.71,0 195.02,87.31 195.02,195.02 z"
           style="fill:url(#g2)" />
        <path
           id="path166"
           class="s3"
           d="m 904.21,368.73 c 0,104.4 -84.63,189.03 -189.02,189.03 -104.4,0 -189.03,-84.63 -189.03,-189.03 0,-104.39 84.63,-189.02 189.03,-189.02 104.39,0 189.02,84.63 189.02,189.02 z"
           style="fill:url(#g3)" />
        <path
           id="path167"
           class="s4"
           d="m 898.21,368.73 c 0,101.09 -81.94,183.03 -183.02,183.03 -101.08,0 -183.03,-81.94 -183.03,-183.03 0,-101.08 81.95,-183.02 183.03,-183.02 101.08,0 183.02,81.94 183.02,183.02 z"
           style="fill:url(#g4)" />
        <path
           id="path168"
           class="s5"
           d="m 892.21,368.73 c 0,97.77 -79.26,177.03 -177.02,177.03 -97.77,0 -177.03,-79.26 -177.03,-177.03 0,-97.76 79.26,-177.02 177.03,-177.02 97.76,0 177.02,79.26 177.02,177.02 z"
           style="fill:url(#g5)" />
        <path
           id="path169"
           class="s6"
           d="m 886.21,368.73 c 0,94.46 -76.57,171.03 -171.02,171.03 -94.45,0 -171.03,-76.57 -171.03,-171.03 0,-94.45 76.58,-171.02 171.03,-171.02 94.45,0 171.02,76.57 171.02,171.02 z"
           style="fill:url(#g6)" />
      </g>
      <path
         id="path170"
         class="s7"
         d="m 851.71,368.73 c 0,75.4 -61.12,136.52 -136.52,136.52 -75.4,0 -136.52,-61.12 -136.52,-136.52 0,-75.39 61.12,-136.52 136.52,-136.52 75.4,0 136.52,61.13 136.52,136.52 z"
         style="fill:url(#g7)" />
      <path
         id="path171"
         class="s8"
         d="m 845.71,368.73 c 0,72.08 -58.44,130.52 -130.52,130.52 -72.08,0 -130.52,-58.44 -130.52,-130.52 0,-72.08 58.44,-130.51 130.52,-130.51 72.08,0 130.52,58.43 130.52,130.51 z"
         style="fill:#1a1a1a" />
    </g>
  </g>
</svg>
