<?xml version="1.0" encoding="UTF-8" standalone="no"?>
<svg
   version="1.1"
   width="24"
   height="24"
   viewBox="0 0 24 24"
   id="svg21"
   xmlns="http://www.w3.org/2000/svg"
   xmlns:svg="http://www.w3.org/2000/svg">
  <defs
     id="defs21" />
  <g
     fill="currentColor"
     transform="matrix(0.006741573,0,0,0.006741573,0,2.7505618)"
     id="g21">
    <g
       id="g1"
       transform="translate(0,-98.362732)">
      <g
         id="g4"
         transform="translate(3.4002478,197.21437)">
        <path
           id="path4"
           style="opacity:1"
           d="m 1603.5,441.5 c 2.75,-0.313 5.41,0.02 8,1 13.8,37.23 27.3,74.563 40.5,112 0.78,3.26 0.62,6.427 -0.5,9.5 -1.64,0.601 -3.3,1.101 -5,1.5 -1.93,-0.09 -3.09,-1.09 -3.5,-3 -13.83,-39.5 -27.67,-79 -41.5,-118.5 0.56,-1.011 1.22,-1.844 2,-2.5 z m 377,-111 c 2.76,-0.585 4.43,0.415 5,3 -7.54,37.191 -16.04,74.191 -25.5,111 -12.63,40.559 -25.3,81.226 -38,122 -7.74,20.57 -15.08,41.237 -22,62 -1.27,4.144 -3.1,7.977 -5.5,11.5 -1.41,0.315 -2.74,-0.018 -4,-1 -40.69,-37.12 -88.69,-53.12 -144,-48 -23.04,2.395 -45.71,6.729 -68,13 -2.67,0.667 -5.33,0.667 -8,0 -3.54,-1.253 -3.88,-3.087 -1,-5.5 21.53,-17.35 46.19,-27.183 74,-29.5 31.36,-1.47 62.36,1.197 93,8 12.33,3.663 24.66,7.163 37,10.5 34.86,-86.045 70.53,-171.711 107,-257 z m -236,-155 c 51.28,-1.555 101.95,3.278 152,14.5 64.02,16.413 118.19,48.913 162.5,97.5 17.86,23.633 22.19,49.633 13,78 -2.14,6.742 -4.47,13.409 -7,20 -39.44,84.212 -79.44,168.212 -120,252 -6.95,12.949 -15.45,24.782 -25.5,35.5 -13.81,11.408 -29.48,18.741 -47,22 -31.96,-36.874 -72.29,-53.874 -121,-51 -20.23,3.117 -38.23,11.117 -54,24 -10.3,8.63 -20.3,17.63 -30,27 -26.02,-5.332 -46.86,-18.832 -62.5,-40.5 -6.09,-8.505 -11.42,-17.505 -16,-27 -30.04,-64.423 -60.38,-128.757 -91,-193 -14.07,-26.883 -23.74,-55.217 -29,-85 -2.46,-35.626 9.37,-65.46 35.5,-89.5 32.99,-29.005 70.66,-50.005 113,-63 41.53,-12.478 83.86,-19.645 127,-21.5 z" />
      </g>
      <g
         id="g5"
         transform="matrix(1,0,0,0.66728015,0,426.38049)">
        <path
           style="opacity:1"
           d="m 1757.5,668.5 c 27.87,-1.314 53.87,4.852 78,18.5 12.68,8.516 18.51,20.35 17.5,35.5 -2.59,8.926 -8.09,15.426 -16.5,19.5 -7.12,3.061 -14.12,6.394 -21,10 -0.63,0.75 -1.13,1.584 -1.5,2.5 -0.67,136.667 -0.67,273.33 0,410 0.3,3.41 0.96,6.75 2,10 5.63,7.57 11.97,14.57 19,21 4.58,6.16 8.91,12.49 13,19 4.8,22.15 8.63,44.48 11.5,67 -34.06,-7.65 -68.56,-11.98 -103.5,-13 -9.19,0.09 -18.36,0.59 -27.5,1.5 -15.27,2.55 -30.27,6.05 -45,10.5 0.36,-21.67 3.19,-43.01 8.5,-64 3.6,-7.26 7.6,-14.26 12,-21 5.7,-6.03 11.7,-11.7 18,-17 2.72,-3.06 5.06,-6.39 7,-10 0.67,-135.67 0.67,-271.333 0,-407 -6.56,-7.562 -14.06,-14.062 -22.5,-19.5 -6.39,-5.042 -11.22,-11.209 -14.5,-18.5 -1.58,-15.012 3.59,-27.179 15.5,-36.5 15.39,-9.839 32.06,-16.006 50,-18.5 z"
           id="path5" />
      </g>
      <g
         id="g6">
        <path
           style="opacity:1"
           d="m 449.5,835.5 c 27.217,-1.923 52.884,3.243 77,15.5 9.333,6.667 18.667,13.333 28,20 173.044,140.05 346.377,279.71 520,419 118.76,94.76 238.09,188.76 358,282 4.47,3.47 8.63,7.3 12.5,11.5 2,2.67 2,5.33 0,8 -12.87,6.85 -26.37,12.18 -40.5,16 -11.95,-5.46 -23.29,-11.96 -34,-19.5 -19.87,-10.85 -40.87,-18.51 -63,-23 -12.62,-1.69 -25.29,-2.36 -38,-2 -0.86,0.69 -1.52,1.52 -2,2.5 1.15,1.65 2.48,3.15 4,4.5 31.76,18.1 63.26,36.6 94.5,55.5 0.27,2.78 -0.9,4.95 -3.5,6.5 -8.96,6.62 -17.62,13.62 -26,21 -3.51,2.18 -7.01,4.35 -10.5,6.5 -12.16,-8.15 -24.32,-16.32 -36.5,-24.5 -27.33,-15.11 -56.33,-25.44 -87,-31 -4.78,3.48 -9.28,7.31 -13.5,11.5 -2.03,3.8 -1.2,6.97 2.5,9.5 21.9,7.64 43.24,16.64 64,27 7.84,4.75 15.5,9.75 23,15 5.41,4.74 10.08,10.07 14,16 -7.62,9.96 -15.62,19.62 -24,29 -4.39,2.37 -9.06,3.04 -14,2 -292.546,-137.44 -584.88,-275.11 -877,-413 -69.302,-34.15 -138.969,-67.48 -209,-100 -16.39,-7.4 -32.057,-16.06 -47,-26 -19.105,-15.65 -25.6049,-35.48 -19.5,-59.5 10.959,-31.6 27.292,-59.94 49,-85 45.253,-52.617 97.086,-97.117 155.5,-133.5 39.483,-23.906 81.149,-43.239 125,-58 6.056,-1.626 12.056,-2.792 18,-3.5 z"
           id="path6" />
      </g>
      <g
         id="g7">
        <path
           style="opacity:1"
           d="m 3061.5,834.5 c 17.12,-1.203 33.78,0.964 50,6.5 118.29,41.526 216.12,111.359 293.5,209.5 12.22,17.23 23.22,35.23 33,54 7.89,16.05 9.56,32.72 5,50 -3.06,5.73 -6.9,10.9 -11.5,15.5 -7.5,4.92 -15.17,9.58 -23,14 -135.61,66.8 -272.27,131.47 -410,194 -238.33,113.16 -477,225.83 -716,338 -1,0.67 -2,0.67 -3,0 -10.17,-10.17 -20.33,-20.33 -30.5,-30.5 -1.19,-1.54 -1.52,-3.21 -1,-5 19.4,-21.62 42.9,-37.12 70.5,-46.5 10.23,-2.72 20.23,-6.06 30,-10 3.63,-2.25 4.79,-5.42 3.5,-9.5 -4.34,-7.84 -11.01,-11.17 -20,-10 -23.82,0.83 -45.99,7.33 -66.5,19.5 -6.83,4.91 -13.83,9.58 -21,14 -8.51,7.85 -17.01,15.68 -25.5,23.5 -15.82,-11.15 -31.66,-22.32 -47.5,-33.5 -0.84,-1.01 -1.17,-2.18 -1,-3.5 3.86,-0.93 7.53,-2.43 11,-4.5 27.3,-16 54.63,-32 82,-48 2.92,-2.05 5.76,-4.21 8.5,-6.5 0.48,-0.95 0.65,-1.95 0.5,-3 -27.28,-3.51 -53.28,0.66 -78,12.5 -17.16,8.41 -33.49,18.07 -49,29 -3.94,1.81 -7.94,3.31 -12,4.5 -15.43,-5.88 -29.76,-13.54 -43,-23 0.48,-0.98 1.14,-1.81 2,-2.5 298.88,-236.61 597.21,-473.94 895,-712 16.59,-13.47 34.93,-24.137 55,-32 6.3,-2.279 12.63,-3.779 19,-4.5 z"
           id="path7" />
      </g>
      <g
         id="g8">
        <path
           style="opacity:1"
           d="m 1737.5,1308.5 c 27.74,0.04 55.41,1.54 83,4.5 14.53,1.77 28.53,5.44 42,11 4.6,4.04 8.1,8.87 10.5,14.5 5.93,16.95 10.1,34.29 12.5,52 -5.71,0.03 -11.38,-0.47 -17,-1.5 -46.09,-10.49 -92.76,-15.49 -140,-15 -10.7,1.45 -21.37,3.12 -32,5 -13.85,4.4 -27.85,8.24 -42,11.5 2.55,-19.2 8.05,-37.53 16.5,-55 7.12,-10.45 16.62,-17.95 28.5,-22.5 12.8,-1.65 25.46,-3.15 38,-4.5 z"
           id="path8" />
      </g>
      <g
         id="g9">
        <path
           style="opacity:1"
           d="m 1748.5,1407.5 c 47.23,-1.85 93.23,4.65 138,19.5 7.52,3.92 14.52,8.59 21,14 15,15.67 30,31.33 45,47 16.87,14.88 34.87,28.21 54,40 17.5,10.92 35.17,21.58 53,32 4.9,3.27 5.24,6.94 1,11 -4.82,2.83 -9.99,4.66 -15.5,5.5 -28.54,-6.26 -57.04,-12.76 -85.5,-19.5 -148.86,-29.24 -296.52,-24.24 -443,15 -8.25,1.88 -16.59,2.54 -25,2 -5.72,-0.89 -9.39,-4.06 -11,-9.5 0.38,-1.88 1.38,-3.38 3,-4.5 30.17,-17.92 59.84,-36.58 89,-56 21.63,-17.97 41.63,-37.63 60,-59 13.62,-13.65 29.95,-22.31 49,-26 22.27,-5.09 44.6,-8.92 67,-11.5 z"
           id="path9" />
      </g>
      <g
         id="g16">
        <path
           style="opacity:1"
           d="m 697.5,2563.5 c -7.163,0.46 -14.163,1.13 -21,2 -7.341,0.17 -14.674,0 -22,-0.5 -8.629,-1.59 -17.295,-2.93 -26,-4 -68.979,-17.82 -134.979,-43.48 -198,-77 -23.333,-14.67 -46.667,-29.33 -70,-44 -13.386,-9.71 -25.886,-20.55 -37.5,-32.5 -6.915,-9.83 -12.248,-20.5 -16,-32 -1.232,-10.74 1.435,-20.41 8,-29 12.675,-11.64 27.175,-20.48 43.5,-26.5 279.486,-107.74 558.819,-216.07 838,-325 16.89,-6.35 34.05,-11.85 51.5,-16.5 5.76,1.43 10.1,4.76 13,10 5.95,9.61 11.45,19.44 16.5,29.5 -2.45,2.73 -5.45,4.73 -9,6 -27.79,10.93 -55.29,22.43 -82.5,34.5 -0.63,2.4 0.2,4.24 2.5,5.5 22.29,8.66 44.63,8.66 67,0 13.83,-5.28 27.5,-10.94 41,-17 2,-0.67 4,-0.67 6,0 10.91,8.07 20.24,17.57 28,28.5 -19.22,9.28 -38.22,19.11 -57,29.5 -2.6,2.09 -4.6,4.59 -6,7.5 0.35,2.2 1.35,4.03 3,5.5 10.04,0.76 20.04,0.42 30,-1 15.39,-3.08 30.73,-6.41 46,-10 11.13,-1.2 21.47,1.13 31,7 12.09,7.8 23.93,15.96 35.5,24.5 0.32,1.41 -0.02,2.74 -1,4 -215.39,128.94 -429.552,259.77 -642.5,392.5 -11.373,6.07 -22.706,12.07 -34,18 -12.48,4.2 -25.147,7.7 -38,10.5 z"
           id="path16" />
      </g>
      <g
         id="g17">
        <path
           style="opacity:1"
           d="m 2288.5,1979.5 c 14.34,2.92 28.34,7.09 42,12.5 288.21,111.6 576.55,222.94 865,334 50.2,21.1 55.53,50.43 16,88 -8.96,6.62 -17.62,13.62 -26,21 -88.34,61.16 -185.01,103.83 -290,128 -24.05,7.06 -48.05,7.06 -72,0 -15.02,-6.01 -29.35,-13.34 -43,-22 -44,-27.33 -88,-54.67 -132,-82 -160.83,-98.25 -321.83,-196.25 -483,-294 -13.11,-7.97 -25.61,-16.81 -37.5,-26.5 -0.62,-0.95 -0.45,-1.78 0.5,-2.5 44.66,-15.67 90.66,-22 138,-19 1.5,-1.11 3.17,-1.95 5,-2.5 1.35,-2.11 1.02,-3.94 -1,-5.5 -16.67,-8.33 -33.33,-16.67 -50,-25 -2.96,-1.96 -5.63,-4.29 -8,-7 8.33,-9.67 17.33,-18.67 27,-27 2,-0.67 4,-0.67 6,0 23.38,7.43 47.04,13.76 71,19 6.67,0.67 13.33,0.67 20,0 5.23,-2.23 10.23,-4.9 15,-8 1.23,-1.18 1.23,-2.35 0,-3.5 -27.4,-12.37 -55.07,-24.2 -83,-35.5 -2.25,-1.38 -4.42,-2.88 -6.5,-4.5 -0.67,-1 -0.67,-2 0,-3 5.75,-9.17 11.75,-18.17 18,-27 2.73,-2.9 5.56,-5.57 8.5,-8 z"
           id="path17" />
      </g>
      <g
         id="g20">
        <path
           id="path20"
           style="opacity:1"
           d="m 1820.5,2190.5 c -2.13,0.81 -4.46,1.31 -7,1.5 -8.99,0.5 -17.99,0.67 -27,0.5 11.16,-0.98 22.49,-1.65 34,-2 z m 25,-2 c -5.44,1.38 -11.11,2.05 -17,2 5.44,-1.38 11.11,-2.05 17,-2 z m -229,-14 c 2.65,-0.09 4.99,0.58 7,2 -2.65,0.09 -4.99,-0.58 -7,-2 z m 131,-370 c 67.48,-2.36 132.81,8.14 196,31.5 26.18,10.91 49.85,25.58 71,44 46.32,49.53 44.99,97.86 -4,145 -22.73,18.36 -47.73,33.03 -75,44 -92.29,31.72 -185.96,36.38 -281,14 -38.39,-8.7 -74.06,-23.7 -107,-45 -15.87,-11.54 -29.37,-25.37 -40.5,-41.5 -10.51,-18.38 -14.85,-38.05 -13,-59 6.47,-27.11 20.64,-49.28 42.5,-66.5 23.93,-17.63 49.93,-31.63 78,-42 43.31,-14.44 87.64,-22.61 133,-24.5 z m -8,-75 c 73.52,-3.35 145.19,6.48 215,29.5 26.08,10.04 51.42,21.71 76,35 21.08,13.12 40.58,28.29 58.5,45.5 21.82,22.31 35.15,48.97 40,80 2.77,28.25 -3.56,54.25 -19,78 -24.92,36.25 -56.75,64.75 -95.5,85.5 -151.05,73.36 -304.39,78.03 -460,14 -44.78,-19.46 -82.61,-47.96 -113.5,-85.5 -39.27,-52.94 -39.27,-105.94 0,-159 33.45,-37.33 73.61,-65.16 120.5,-83.5 57.2,-23.14 116.53,-36.31 178,-39.5 z m -14,-75 c -8.16,1.03 -16.49,1.7 -25,2 8.1,-1.68 16.44,-2.34 25,-2 z m -17,-23 c -8.44,1.69 -17.11,2.36 -26,2 8.49,-1.01 17.16,-1.68 26,-2 z m 17,23 c -8.56,-0.34 -16.9,0.32 -25,2 -28.55,2.42 -56.88,6.59 -85,12.5 -18.37,5.18 -36.7,10.51 -55,16 -19.74,7.14 -39.41,14.47 -59,22 -57.02,27 -104.52,65.83 -142.5,116.5 -10.43,16.54 -18.43,34.2 -24,53 -1.78,15.69 -3.78,31.36 -6,47 -0.93,1.96 -1.76,3.96 -2.5,6 -0.67,1.33 -1.33,1.33 -2,0 -17.04,-70.39 1.29,-129.89 55,-178.5 13.47,-12.48 27.8,-23.81 43,-34 71.04,-44.5 148.38,-71.5 232,-81 9.31,-1.16 18.64,-2 28,-2.5 8.89,0.36 17.56,-0.31 26,-2 79.09,-4.71 157.42,0.79 235,16.5 39.87,10.05 78.87,22.72 117,38 33,15.82 63.66,35.15 92,58 15.61,15.27 30.11,31.44 43.5,48.5 30.05,44.27 37.05,91.94 21,143 -0.91,3.08 -2.74,5.41 -5.5,7 2.83,-56.7 -15.01,-105.7 -53.5,-147 -28.83,-29.31 -60.99,-54.14 -96.5,-74.5 -80.75,-42.25 -166.75,-64.91 -258,-68 -26.08,-1.04 -52.08,-0.54 -78,1.5 z m 120,534 c -5.89,-0.05 -11.56,0.62 -17,2 -2.67,0 -5.33,0 -8,0 -11.51,0.35 -22.84,1.02 -34,2 -55.1,1.69 -109.44,-3.64 -163,-16 -2.01,-1.42 -4.35,-2.09 -7,-2 -83.66,-19.83 -158.66,-56.67 -225,-110.5 -38.24,-32.88 -69.74,-71.04 -94.5,-114.5 -39.57,-87.13 -25.74,-164.63 41.5,-232.5 23.36,-21.85 49.03,-40.51 77,-56 46.32,-25.66 95.32,-44.32 147,-56 164.81,-39.61 327.48,-32.28 488,22 52.44,19.04 100.11,46.04 143,81 22.34,21.67 40.84,46.17 55.5,73.5 10.95,22.95 17.11,47.12 18.5,72.5 -0.3,37.88 -10.13,73.05 -29.5,105.5 -12.97,23.61 -28.64,45.28 -47,65 -34.75,35.93 -73.58,66.43 -116.5,91.5 -71.16,40.11 -147.49,64.27 -229,72.5 z" />
      </g>
    </g>
  </g>
</svg>
