<?xml version="1.0" encoding="UTF-8" standalone="no"?>
<!-- Created with Inkscape (http://www.inkscape.org/) -->

<svg
   width="65.889183mm"
   height="65.889183mm"
   viewBox="0 0 65.889178 65.889184"
   version="1.1"
   id="svg1"
   xmlns="http://www.w3.org/2000/svg"
   xmlns:svg="http://www.w3.org/2000/svg">
  <defs
     id="defs1">
    <linearGradient
       id="g1"
       x2="1"
       gradientUnits="userSpaceOnUse"
       gradientTransform="matrix(0,402.055,-402.056,0,916.217,167.706)">
      <stop
         offset="0"
         stop-color="#c3c2c2"
         id="stop1" />
      <stop
         offset="1"
         stop-color="#bab9b9"
         id="stop2" />
    </linearGradient>
    <linearGradient
       id="g2"
       x2="1"
       gradientUnits="userSpaceOnUse"
       gradientTransform="matrix(0,390.053,-390.054,0,910.216,173.707)">
      <stop
         offset="0"
         stop-color="#c6c5c6"
         id="stop3" />
      <stop
         offset="1"
         stop-color="#b4b3b3"
         id="stop4" />
    </linearGradient>
    <linearGradient
       id="g3"
       x2="1"
       gradientUnits="userSpaceOnUse"
       gradientTransform="matrix(0,378.052,-378.053,0,904.215,179.707)">
      <stop
         offset="0"
         stop-color="#c9c9c9"
         id="stop5" />
      <stop
         offset="1"
         stop-color="#aeaeae"
         id="stop6" />
    </linearGradient>
    <linearGradient
       id="g4"
       x2="1"
       gradientUnits="userSpaceOnUse"
       gradientTransform="matrix(0,366.05,-366.051,0,898.214,185.708)">
      <stop
         offset="0"
         stop-color="#cbcccc"
         id="stop7" />
      <stop
         offset="1"
         stop-color="#a8a8a8"
         id="stop8" />
    </linearGradient>
    <linearGradient
       id="g5"
       x2="1"
       gradientUnits="userSpaceOnUse"
       gradientTransform="matrix(0,354.049,-354.049,0,892.213,191.709)">
      <stop
         offset="0"
         stop-color="#cecfd0"
         id="stop9" />
      <stop
         offset="1"
         stop-color="#a2a2a2"
         id="stop10" />
    </linearGradient>
    <linearGradient
       id="g6"
       x2="1"
       gradientUnits="userSpaceOnUse"
       gradientTransform="matrix(0,342.047,-342.047,0,886.212,197.71)">
      <stop
         offset="0"
         stop-color="#d1d2d3"
         id="stop11" />
      <stop
         offset="1"
         stop-color="#9c9c9c"
         id="stop12" />
    </linearGradient>
    <linearGradient
       id="g7"
       x2="1"
       gradientUnits="userSpaceOnUse"
       gradientTransform="matrix(0,273.037,-273.036,0,851.708,232.215)">
      <stop
         offset="0"
         stop-color="#e6e6e6"
         id="stop13" />
      <stop
         offset="1"
         stop-color="#cccccc"
         id="stop14" />
    </linearGradient>
    <linearGradient
       id="g8"
       x2="1"
       gradientUnits="userSpaceOnUse"
       gradientTransform="matrix(0,249.034,-249.034,0,839.706,244.216)">
      <stop
         offset="0"
         stop-color="#f2f2f2"
         id="stop15" />
      <stop
         offset="1"
         stop-color="#a1a1a1"
         id="stop16" />
    </linearGradient>
    <linearGradient
       id="g9"
       x2="1"
       gradientUnits="userSpaceOnUse"
       gradientTransform="matrix(0,45.293,-58.206,0,643.76,401.559)">
      <stop
         offset="0"
         stop-color="#616164"
         id="stop17" />
      <stop
         offset="1"
         stop-color="#3b3738"
         id="stop18" />
    </linearGradient>
    <linearGradient
       id="g10"
       x2="1"
       gradientUnits="userSpaceOnUse"
       gradientTransform="matrix(0,40.988,-61.214,0,636.658,313.288)">
      <stop
         offset="0"
         stop-color="#9c9c9c"
         id="stop19" />
      <stop
         offset="1"
         stop-color="#616164"
         id="stop20" />
    </linearGradient>
    <linearGradient
       id="g11"
       x2="1"
       gradientUnits="userSpaceOnUse"
       gradientTransform="matrix(0,219.029,-213.186,0,821.783,256.218)">
      <stop
         offset="0"
         stop-color="#ffffff"
         id="stop21" />
      <stop
         offset="1"
         stop-color="#9c9c9c"
         id="stop22" />
    </linearGradient>
    <linearGradient
       id="g12"
       x2="1"
       gradientUnits="userSpaceOnUse"
       gradientTransform="matrix(0,-219.029,222.07,0,604.154,481.248)">
      <stop
         offset="0"
         stop-color="#a1a1a1"
         id="stop23" />
      <stop
         offset=".88"
         stop-color="#3b3738"
         id="stop24" />
      <stop
         offset="1"
         stop-color="#d0d0d0"
         id="stop25" />
    </linearGradient>
    <linearGradient
       id="g13"
       x2="1"
       gradientUnits="userSpaceOnUse"
       gradientTransform="matrix(0,-210.028,210.029,0,610.176,473.751)">
      <stop
         offset="0"
         stop-color="#d0d0d0"
         id="stop26" />
      <stop
         offset="1"
         stop-color="#9c9c9c"
         id="stop27" />
    </linearGradient>
    <linearGradient
       id="g14"
       x2="1"
       gradientUnits="userSpaceOnUse"
       gradientTransform="matrix(-26.764,141.252,-68.33,-12.947,771.573,236.504)">
      <stop
         offset="0"
         stop-color="#d2d5de"
         id="stop28" />
      <stop
         offset=".356"
         stop-color="#f1f1f2"
         id="stop29" />
      <stop
         offset="1"
         stop-color="#d2d5de"
         id="stop30" />
    </linearGradient>
    <linearGradient
       id="g72"
       x2="1"
       gradientUnits="userSpaceOnUse"
       gradientTransform="matrix(0,-210.028,210.028,0,610.176,473.75099)">
      <stop
         offset="0"
         stop-color="#eff6f7"
         id="stop155" />
      <stop
         offset="1"
         stop-color="#9d9d9d"
         id="stop156" />
    </linearGradient>
    <linearGradient
       id="g63"
       x2="1"
       gradientUnits="userSpaceOnUse"
       gradientTransform="matrix(0,402.055,-402.056,0,487.143,167.706)">
      <stop
         offset="0"
         stop-color="#c3c2c2"
         id="stop135" />
      <stop
         offset="1"
         stop-color="#bab9b9"
         id="stop136" />
    </linearGradient>
    <linearGradient
       id="g64"
       x2="1"
       gradientUnits="userSpaceOnUse"
       gradientTransform="matrix(0,390.053,-390.053,0,481.141,173.707)">
      <stop
         offset="0"
         stop-color="#c6c5c6"
         id="stop137" />
      <stop
         offset="1"
         stop-color="#b4b3b3"
         id="stop138" />
    </linearGradient>
    <linearGradient
       id="g65"
       x2="1"
       gradientUnits="userSpaceOnUse"
       gradientTransform="matrix(0,378.052,-378.053,0,475.142,179.707)">
      <stop
         offset="0"
         stop-color="#c9c9c9"
         id="stop139" />
      <stop
         offset="1"
         stop-color="#aeaeae"
         id="stop140" />
    </linearGradient>
    <linearGradient
       id="g66"
       x2="1"
       gradientUnits="userSpaceOnUse"
       gradientTransform="matrix(0,366.05,-366.051,0,469.141,185.708)">
      <stop
         offset="0"
         stop-color="#cbcccc"
         id="stop141" />
      <stop
         offset="1"
         stop-color="#a8a8a8"
         id="stop142" />
    </linearGradient>
    <linearGradient
       id="g67"
       x2="1"
       gradientUnits="userSpaceOnUse"
       gradientTransform="matrix(0,354.049,-354.049,0,463.14,191.709)">
      <stop
         offset="0"
         stop-color="#cecfd0"
         id="stop143" />
      <stop
         offset="1"
         stop-color="#a2a2a2"
         id="stop144" />
    </linearGradient>
    <linearGradient
       id="g68"
       x2="1"
       gradientUnits="userSpaceOnUse"
       gradientTransform="matrix(0,342.047,-342.047,0,457.139,197.71)">
      <stop
         offset="0"
         stop-color="#d1d2d3"
         id="stop145" />
      <stop
         offset="1"
         stop-color="#9c9c9c"
         id="stop146" />
    </linearGradient>
    <linearGradient
       id="g69"
       x2="1"
       gradientUnits="userSpaceOnUse"
       gradientTransform="matrix(0,273.037,-273.037,0,422.633,232.215)">
      <stop
         offset="0"
         stop-color="#e6e6e6"
         id="stop147" />
      <stop
         offset="1"
         stop-color="#cccccc"
         id="stop148" />
    </linearGradient>
    <linearGradient
       id="g70"
       x2="1"
       gradientUnits="userSpaceOnUse"
       gradientTransform="matrix(0,-249.034,249.034,0,161.598,493.25)">
      <stop
         offset="0"
         stop-color="#ffffff"
         id="stop149" />
      <stop
         offset="1"
         stop-color="#616164"
         id="stop150" />
    </linearGradient>
    <linearGradient
       id="g71"
       x2="1"
       gradientUnits="userSpaceOnUse"
       gradientTransform="matrix(0,-219.029,222.071,0,175.079,480.498)">
      <stop
         offset="0"
         stop-color="#a1a1a1"
         id="stop151" />
      <stop
         offset=".754"
         stop-color="#3b3738"
         id="stop152" />
      <stop
         offset=".921"
         stop-color="#d0d0d0"
         id="stop153" />
      <stop
         offset=".995"
         stop-color="#3b3738"
         id="stop154" />
    </linearGradient>
    <linearGradient
       id="g72-4"
       x2="1"
       gradientUnits="userSpaceOnUse"
       gradientTransform="matrix(0,-210.028,210.028,0,181.101,473.751)">
      <stop
         offset="0"
         stop-color="#eff6f7"
         id="stop155-4" />
      <stop
         offset="1"
         stop-color="#9d9d9d"
         id="stop156-6" />
    </linearGradient>
    <linearGradient
       id="g73"
       x2="1"
       gradientUnits="userSpaceOnUse"
       gradientTransform="matrix(23.971,-75.037,193.854,61.928,282.736,412.085)">
      <stop
         offset="0"
         stop-color="#aa9286"
         id="stop157" />
      <stop
         offset="1"
         stop-color="#8c7a70"
         id="stop158" />
    </linearGradient>
    <linearGradient
       id="g74"
       x2="1"
       gradientUnits="userSpaceOnUse"
       gradientTransform="matrix(49.24,0,0,64.549,350.7,272.945)">
      <stop
         offset="0"
         stop-color="#443f30"
         id="stop159" />
      <stop
         offset="1"
         stop-color="#8c7a70"
         id="stop160" />
    </linearGradient>
    <linearGradient
       id="g75"
       x2="1"
       gradientUnits="userSpaceOnUse"
       gradientTransform="matrix(0,-83.352,477.547,0,-67.686,408.461)">
      <stop
         offset="0"
         stop-color="#564949"
         id="stop161" />
      <stop
         offset=".319"
         stop-color="#573d32"
         id="stop162" />
      <stop
         offset="1"
         stop-color="#463332"
         id="stop163" />
    </linearGradient>
    <linearGradient
       id="g13-8"
       x2="1"
       gradientUnits="userSpaceOnUse"
       gradientTransform="matrix(0,210.028,-210.029,0,391.12898,263.71898)">
      <stop
         offset="0"
         stop-color="#d0d0d0"
         id="stop26-4" />
      <stop
         offset="1"
         stop-color="#9c9c9c"
         id="stop27-9" />
    </linearGradient>
  </defs>
  <g
     id="layer1"
     transform="translate(-106.228,-129.24526)">
    <g
       id="g186"
       transform="matrix(0.26458333,0,0,0.26458333,-100.05484,14.628812)">
      <g
         id="g297"
         transform="translate(618.0517,188.97604)">
        <path
           id="path284"
           class="s79"
           d="m 410.63,368.73 c 0,68.77 -55.75,124.52 -124.51,124.52 -68.77,0 -124.52,-55.75 -124.52,-124.52 0,-68.77 55.75,-124.51 124.52,-124.51 68.76,0 124.51,55.74 124.51,124.51 z"
           style="fill:url(#g70)" />
        <path
           id="path285"
           class="s80"
           d="m 394.13,370.98 c 0,60.49 -48.36,109.52 -108.01,109.52 -59.66,0 -108.02,-49.03 -108.02,-109.52 0,-60.48 48.36,-109.51 108.02,-109.51 59.65,0 108.01,49.03 108.01,109.51 z"
           style="fill:url(#g71)" />
        <path
           id="path287"
           class="s19"
           d="m 266.95,254.8 c 1.88,-0.33 -53.86,7.89 -81.68,62.5 -27.27,54.44 -3.19,104.78 -3.99,103.11 1.11,2.1 -28.27,-47.64 -0.02,-105.16 13.85,-27.35 37.3,-44.39 55.2,-52.05 18.2,-7.74 30.62,-8.06 30.49,-8.4 z"
           style="fill:#616164" />
        <path
           id="path288"
           class="s82"
           d="m 400.88,381.95 c -0.36,0.03 1.13,-20.75 -5.96,-44.51 -6.54,-23.91 -18.96,-40.71 -18.6,-40.87 -0.52,0.01 15.91,14.42 22.93,39.63 7.37,25.11 1.23,45.99 1.63,45.75 z"
           style="fill:#6f635a" />
        <path
           id="path289"
           class="s83"
           d="m 377.4,442.33 c -0.12,-0.01 10.42,-13.97 14.81,-30.82 5.14,-16.57 4.72,-34.34 4.69,-36.12 0.12,-3.65 2.25,-6.64 4.73,-6.66 2.49,-0.02 4.4,3.15 4.25,7.08 0.06,1.88 -1.91,20.78 -9.44,37.23 -6.84,16.85 -19.2,29.28 -19.04,29.29 z"
           style="fill:url(#g73)" />
        <path
           id="path290"
           class="s84"
           d="m 350.7,272.95 c -0.16,0.08 15.57,8.67 27.69,22.78 12.73,13.51 20.59,31.53 20.97,33.47 1.28,3.87 0.37,7.54 -2.03,8.19 -2.4,0.64 -5.3,-1.69 -6.47,-5.22 -0.36,-1.76 -5.48,-19.19 -16,-33.65 -9.84,-14.92 -24.29,-25.51 -24.16,-25.57 z"
           style="fill:url(#g74)" />
        <path
           id="path291"
           class="s85"
           d="m 178.36,325.13 c -0.89,0 -5.03,28.56 -2.24,52.34 2.19,23.72 3.73,29.54 -0.12,30.86 -2.29,1.03 -9.36,-3.63 -11.86,-30.08 -2.83,-27.17 13.69,-54.09 14.22,-53.12 z"
           style="fill:url(#g75)" />
        <g
           id="g294">
          <path
             id="path292"
             class="s86"
             d="m 255.96,257.19 c 0.9,3.67 -18.97,10.79 -38.5,26.62 -20.1,15.82 -37.48,39.17 -37.48,39.17 0,0 9.08,-32.55 29.54,-48.97 22.28,-17.89 46.07,-19.99 46.44,-16.82 z"
             style="fill:#b3b5b6" />
          <path
             id="path293"
             class="s17"
             d="m 241.75,262.17 c 1.03,2.68 -11.7,9.52 -25.14,20.59 -13.65,10.83 -22.97,21.89 -25.39,20.3 -2.23,-1.29 4.11,-15.98 19.16,-28 14.9,-12.19 30.58,-15.36 31.37,-12.89 z"
             style="fill:#696938" />
          <path
             id="path294"
             class="s87"
             d="m 228.18,268.96 c 0.63,1.19 -5.47,6.15 -13.01,12.03 -7.32,6.15 -13.47,11.06 -14.48,10.21 -1.22,-1.07 3.4,-7.87 11.12,-14.36 7.96,-6.21 15.59,-9.28 16.37,-7.88 z"
             style="fill:#88864b" />
        </g>
        <path
           id="path295"
           class="s88"
           d="m 209.69,458.17 c -0.39,-0.95 30.21,26.56 77.03,25.86 46.82,0.16 77.15,-27.58 76.77,-26.66 0.6,-1.16 -28.13,29.96 -76.75,30.04 -48.63,0.48 -77.66,-30.42 -77.05,-29.24 z"
           style="fill:#d2d5de" />
        <path
           id="path296"
           class="s89"
           d="m 376.32,296.57 c -0.3,0.68 -18.2,-22 -49.84,-33.58 -31.34,-12.13 -59.75,-7.89 -59.53,-8.19 -0.51,0.39 28,-8.64 61.14,3.98 33.3,12.41 48.09,38.73 48.23,37.79 z"
           style="fill:#9c9c9c" />
        <path
           id="path297"
           class="s90"
           d="m 276.49,252.61 c 0.5,2.54 -2.86,5.32 -7.49,6.22 -4.62,0.9 -8.77,-0.43 -9.27,-2.97 -0.49,-2.54 2.86,-5.32 7.49,-6.22 4.63,-0.9 8.78,0.43 9.27,2.97 z"
           style="fill:#515152" />
        <path
           id="path185"
           class="s22"
           d="m 391.12498,368.72998 c 0,58 -47.01,105.02 -105.01,105.02 -58,0 -105.01,-47.02 -105.01,-105.02 0,-58 47.01,-105.01 105.01,-105.01 58,0 105.01,47.01 105.01,105.01 z"
           style="display:inline;fill:url(#g13-8)" />
      </g>
    </g>
  </g>
</svg>
