<?xml version="1.0" encoding="UTF-8" standalone="no"?>
<svg
   version="1.1"
   width="1024"
   height="1024"
   style="clip-rule:evenodd;fill-rule:evenodd;image-rendering:optimizeQuality;shape-rendering:geometricPrecision;text-rendering:geometricPrecision"
   id="svg21"
   sodipodi:docname="app_icon.svg"
   inkscape:version="1.4.3 (0d15f75, 2025-12-25)"
   xml:space="preserve"
   xmlns:inkscape="http://www.inkscape.org/namespaces/inkscape"
   xmlns:sodipodi="http://sodipodi.sourceforge.net/DTD/sodipodi-0.dtd"
   xmlns="http://www.w3.org/2000/svg"
   xmlns:svg="http://www.w3.org/2000/svg"><defs
     id="defs21" /><sodipodi:namedview
     id="namedview21"
     pagecolor="#ffffff"
     bordercolor="#000000"
     borderopacity="0.25"
     inkscape:showpageshadow="2"
     inkscape:pageopacity="0.0"
     inkscape:pagecheckerboard="0"
     inkscape:deskcolor="#d1d1d1"
     inkscape:zoom="0.78808594"
     inkscape:cx="512"
     inkscape:cy="512"
     inkscape:window-width="1920"
     inkscape:window-height="1009"
     inkscape:window-x="-8"
     inkscape:window-y="-8"
     inkscape:window-maximized="1"
     inkscape:current-layer="g5" /><g
     id="g5"
     transform="translate(-870.2525,456.54914)"
     style="clip-rule:evenodd;fill-rule:evenodd;image-rendering:optimizeQuality;shape-rendering:geometricPrecision;text-rendering:geometricPrecision"
     inkscape:label="g1"><path
       id="path4"
       style="clip-rule:evenodd;fill:#ffd10c;fill-opacity:0.258824;fill-rule:evenodd;stroke:#000000;stroke-width:0.0115956;image-rendering:optimizeQuality;shape-rendering:geometricPrecision;text-rendering:geometricPrecision"
       d="M 531.99998,-18.635971 A 374.9942,374.9942 0 0 0 157.00587,356.35817 374.9942,374.9942 0 0 0 531.99998,731.35226 374.9942,374.9942 0 0 0 906.99412,356.35817 374.9942,374.9942 0 0 0 531.99998,-18.635971 Z m 0,62.49804 A 312.49518,312.49518 0 0 1 844.49608,356.35817 312.49518,312.49518 0 0 1 531.99998,668.85426 312.49518,312.49518 0 0 1 219.50387,356.35817 312.49518,312.49518 0 0 1 531.99998,43.862069 Z"
       inkscape:label="path16"
       transform="translate(850.2525,-361.35974)" /><path
       style="clip-rule:evenodd;fill:#fdb71a;fill-opacity:1;fill-rule:evenodd;image-rendering:optimizeQuality;shape-rendering:geometricPrecision;text-rendering:geometricPrecision"
       fill="#f9b518"
       d="m 1487.3288,280.90297 c -0.02,15.401 -7.02,26.068 -21,32 -12.97,0.923 -25.97,1.256 -39,1 0.331,-30.838 0,-61.505 -1,-92 -2.66,-12.322 -10.327,-18.988 -23,-20 0,-6.333 0,-12.667 0,-19 74.752,-10.762 127.586,-50.429 158.5,-119.000002 22.593,-58.7630004 18.926,-115.763 -11,-170.999998 -43.909,-69.041 -107.076,-101.208 -189.5,-96.5 -81.179,12.504 -136.012,57.338 -164.5,134.499998 -18.41,65.6009996 -7.41,125.601 33,180.000002 33.994,41.083 77.494,65.083 130.5,72 0,6.333 0,12.667 0,19 -15.68,-1.016 -25.347,5.984 -29,21 -0.998,30.162 -1.331,60.495 -1,91 -10.698,0.237 -21.365,-0.096 -32,-1 -13.975,-5.919 -20.975,-16.586 -21,-32 0.167,-14.004 0,-28.004 -0.5,-42 -1.705,-9.59 -6.538,-17.09 -14.5,-22.5 -13.537,-7.544 -26.537,-15.878 -39,-25 -77.852,-66.195 -108.685,-150.028002 -92.5,-251.500002 22.093,-94.086998 78.259,-158.253998 168.5,-192.499998 88.891,-27.217 170.224,-12.884 244,43 69.582,59.683 100.749,135.515998 93.5,227.499998 -12.436,90.044002 -58.269,156.877002 -137.5,200.500002 -5.876,4.88 -9.709,11.047 -11.5,18.5 -0.5,14.663 -0.667,29.33 -0.5,44 z"
       id="path2"
       inkscape:label="path15" /><path
       style="clip-rule:evenodd;fill:#fed10a;fill-opacity:1;fill-rule:evenodd;image-rendering:optimizeQuality;shape-rendering:geometricPrecision;text-rendering:geometricPrecision"
       fill="#face06"
       d="M 1403.3288,182.90297 V 83.902968 c 12.338,0.167 24.671,0 37,-0.5 25.222,-8.264 34.389,-25.431 27.5,-51.5 -9.822,-20.488 -25.988,-27.9880004 -48.5,-22.5000004 -11.896,4.8970004 -20.063,13.3970004 -24.5,25.5000004 -0.5,13.329 -0.667,26.663 -0.5,40 h -24 c 0.167,-12.671 0,-25.338 -0.5,-38 -5.671,-18.835 -18.337,-28.1680004 -38,-28.0000004 -17.71,0.035 -29.71,8.3680004 -36,25.0000004 -5.39,23.88 3.11,40.38 25.5,49.5 13.329,0.5 26.663,0.667 40,0.5 l -1,99.000002 c -53.006,-6.917 -96.506,-30.917 -130.5,-72 -40.41,-54.399002 -51.41,-114.3990024 -33,-180.000002 28.488,-77.161998 83.321,-121.995998 164.5,-134.499998 82.424,-4.708 145.591,27.459 189.5,96.5 29.926,55.236998 33.593,112.2369976 11,170.999998 -30.914,68.571002 -83.748,108.238002 -158.5,119.000002 z"
       id="path3"
       sodipodi:nodetypes="cccccccccccccccccccc"
       inkscape:label="path14" /><path
       style="clip-rule:evenodd;fill-rule:evenodd;image-rendering:optimizeQuality;shape-rendering:geometricPrecision;text-rendering:geometricPrecision"
       fill="#face0a"
       d="m 1360.3288,38.902968 c 0,11.667 0,23.333 0,35 -11.333,0 -22.667,0 -34,0 -10.914,-2.048 -18.081,-8.381 -21.5,-19 -3.559,-17.722 2.941,-29.889 19.5,-36.5 11.878,-2.89 22.045,-0.057 30.5,8.5 2.656,3.644 4.489,7.644 5.5,12 z"
       id="path5"
       inkscape:label="path13" /><path
       style="clip-rule:evenodd;fill-rule:evenodd;image-rendering:optimizeQuality;shape-rendering:geometricPrecision;text-rendering:geometricPrecision"
       fill="#face0c"
       d="m 1423.3288,17.902968 c 29.496,-1.344 40.996,12.323 34.5,41 -4.143,8.144 -10.643,13.311 -19.5,15.5 -11.662,0.5 -23.329,0.667 -35,0.5 -0.444,-13.407 0.056,-26.74 1.5,-40 3.833,-8.338 10,-14.005 18.5,-17 z"
       id="path6"
       inkscape:label="path12" /><path
       style="clip-rule:evenodd;fill-rule:evenodd;image-rendering:optimizeQuality;shape-rendering:geometricPrecision;text-rendering:geometricPrecision"
       fill="#f9ce05"
       d="m 1393.3288,83.902968 c 0,33.333002 0,66.667002 0,100.000002 -7.667,0 -15.333,0 -23,0 0,-33.333 0,-66.667 0,-100.000002 7.667,0 15.333,0 23,0 z"
       id="path8"
       inkscape:label="path11" /><path
       style="clip-rule:evenodd;fill-rule:evenodd;image-rendering:optimizeQuality;shape-rendering:geometricPrecision;text-rendering:geometricPrecision"
       fill="#fab518"
       d="m 1370.3288,183.90297 c 7.667,0 15.333,0 23,0 0,6 0,12 0,18 -7.667,0 -15.333,0 -23,0 0,-6 0,-12 0,-18 z"
       id="path9"
       inkscape:label="path10" /><path
       id="path10"
       style="clip-rule:evenodd;fill:#fed10a;fill-opacity:1;fill-rule:evenodd;image-rendering:optimizeQuality;shape-rendering:geometricPrecision;text-rendering:geometricPrecision"
       d="m 1361.3288,201.90297 h -1 c -15.68,-1.016 -25.347,5.984 -29,21 -0.998,30.162 -1.331,60.495 -1,91 h 97 c 0.331,-30.838 0,-61.505 -1,-92 -2.66,-12.322 -10.327,-18.988 -23,-20 z"
       sodipodi:nodetypes="cccccccc"
       inkscape:label="path9" /><path
       style="clip-rule:evenodd;fill:#9e9e9e;fill-opacity:1;fill-rule:evenodd;image-rendering:optimizeQuality;shape-rendering:geometricPrecision;text-rendering:geometricPrecision"
       fill="#9e9d9d"
       d="m 1298.3288,312.90297 c 10.635,0.904 21.302,1.237 32,1 32.333,0 64.667,0 97,0 13.03,0.256 26.03,-0.077 39,-1 0,3.667 0,7.333 0,11 -33.333,0 -66.667,0 -100,0 -10.667,0 -21.333,0 -32,0 -12,0 -24,0 -36,0 0,-3.667 0,-7.333 0,-11 z"
       id="path11"
       inkscape:label="path8" /><path
       id="path13"
       style="clip-rule:evenodd;fill:#cccccc;fill-opacity:1;fill-rule:evenodd;image-rendering:optimizeQuality;shape-rendering:geometricPrecision;text-rendering:geometricPrecision"
       d="m 1298.3288,323.90297 c -13.3171,3.94811 -18.4963,14.15331 -20.5,21 -2.081,16.856 4.753,28.189 20.5,34 h 37 c -4.747,-2.639 -8.58,-6.306 -11.5,-11 -1.566,-10.273 -1.899,-20.607 -1,-31 2.273,-5.77 6.106,-10.103 11.5,-13 z m 68,0 c 10.731,5.809 14.731,14.809 12,27 2.593,12.804 -1.74,22.137 -13,28 h 101 c 17.482,-6.963 23.815,-19.63 19,-38 -4.068,-8.062 -10.401,-13.728 -19,-17 z"
       sodipodi:nodetypes="ccccccccccccccc"
       inkscape:label="path7" /><path
       style="clip-rule:evenodd;fill:#e2e2e2;fill-opacity:1;fill-rule:evenodd;image-rendering:optimizeQuality;shape-rendering:geometricPrecision;text-rendering:geometricPrecision"
       fill="#e0e0e0"
       d="m 1334.3288,323.90297 c 10.667,0 21.333,0 32,0 10.731,5.809 14.731,14.809 12,27 2.593,12.804 -1.74,22.137 -13,28 -10,0 -20,0 -30,0 -4.747,-2.639 -8.58,-6.306 -11.5,-11 -1.566,-10.273 -1.899,-20.607 -1,-31 2.273,-5.77 6.106,-10.103 11.5,-13 z"
       id="path14"
       inkscape:label="path6" /><path
       style="clip-rule:evenodd;fill:#9e9e9e;fill-opacity:1;fill-rule:evenodd;image-rendering:optimizeQuality;shape-rendering:geometricPrecision;text-rendering:geometricPrecision"
       fill="#9e9e9e"
       d="m 1298.3288,378.90297 c 12.333,0 24.667,0 37,0 10,0 20,0 30,0 33.667,0 67.333,0 101,0 0,2 0,4 0,6 -34.29,-0.986 -68.623,-1.32 -103,-1 -9,0 -18,0 -27,0 -12.704,-0.275 -25.37,0.058 -38,1 0,-2 0,-4 0,-6 z"
       id="path16"
       inkscape:label="path5" /><path
       id="path17"
       style="clip-rule:evenodd;fill:#cccccc;fill-opacity:1;fill-rule:evenodd;image-rendering:optimizeQuality;shape-rendering:geometricPrecision;text-rendering:geometricPrecision"
       d="m 1336.3288,383.90297 c -12.704,-0.275 -25.37,0.058 -38,1 -32.7699,8.78066 -31.9304,46.44427 0,55 h 38 c -11.524,-5.714 -16.19,-15.047 -14,-28 -2.19,-12.953 2.476,-22.286 14,-28 z m 27,0 c 12.121,5.062 17.121,14.229 15,27.5 2.812,13.494 -1.855,22.994 -14,28.5 34.031,0.313 68.031,-0.021 102,-1 13.321,-3.998 20.321,-12.998 21,-27 -0.698,-14.019 -7.698,-23.019 -21,-27 -34.29,-0.986 -68.623,-1.32 -103,-1 z"
       sodipodi:nodetypes="ccccccccccccc"
       inkscape:label="path4" /><path
       style="clip-rule:evenodd;fill:#e2e2e2;fill-opacity:1;fill-rule:evenodd;image-rendering:optimizeQuality;shape-rendering:geometricPrecision;text-rendering:geometricPrecision"
       fill="#e0e0e0"
       d="m 1336.3288,383.90297 c 9,0 18,0 27,0 12.121,5.062 17.121,14.229 15,27.5 2.812,13.494 -1.855,22.994 -14,28.5 -9.333,0 -18.667,0 -28,0 -11.524,-5.714 -16.19,-15.047 -14,-28 -2.19,-12.953 2.476,-22.286 14,-28 z"
       id="path18"
       inkscape:label="path3" /><path
       style="clip-rule:evenodd;fill:#9e9e9e;fill-opacity:1;fill-rule:evenodd;image-rendering:optimizeQuality;shape-rendering:geometricPrecision;text-rendering:geometricPrecision"
       fill="#9c9c9c"
       d="m 1466.3288,438.90297 c -2.775,13.942 -11.108,22.442 -25,25.5 -6.325,0.5 -12.658,0.666 -19,0.5 -26.764,-1.327 -53.431,-1.327 -80,0 -15.766,2.967 -28.933,-1.366 -39.5,-13 -2.354,-3.702 -3.854,-7.702 -4.5,-12 12.667,0 25.333,0 38,0 9.333,0 18.667,0 28,0 34.031,0.313 68.031,-0.021 102,-1 z"
       id="path20"
       inkscape:label="path2" /><path
       style="clip-rule:evenodd;fill:#7f7f7f;fill-opacity:1;fill-rule:evenodd;image-rendering:optimizeQuality;shape-rendering:geometricPrecision;text-rendering:geometricPrecision"
       fill="#7d7d7d"
       d="m 1422.3288,464.90297 c 0.564,13.725 -5.769,22.225 -19,25.5 -14.667,0.667 -29.333,0.667 -44,0 -12.756,-3.659 -18.423,-12.159 -17,-25.5 26.569,-1.327 53.236,-1.327 80,0 z"
       id="path21"
       inkscape:label="path1" /></g></svg>
